<svg width="24" height="24" viewBox="0 0 24 24" fill="none" xmlns="http://www.w3.org/2000/svg">
<path d="M0.999945 3C0.999945 2.44772 1.44766 2 1.99995 2H21.9999C22.5522 2 22.9999 2.44772 22.9999 3V19C22.9999 19.5523 22.5522 20 21.9999 20H1.99995C1.44766 20 0.999945 19.5523 0.999945 19V16.0116L0.999878 15.9998C0.999878 15.7236 1.1117 15.4737 1.29267 15.2927L1.69288 14.8966C1.80242 14.787 1.85692 14.6434 1.85657 14.4999C1.85692 14.3563 1.80242 14.2127 1.69288 14.1032L1.29267 13.707C1.1117 13.5261 0.999878 13.2761 0.999878 12.9999C0.999878 12.4477 1.44754 12 1.99979 12C2.55204 12 2.9997 12.4477 2.9997 12.9999C2.9997 13.2761 2.8877 13.5261 2.70673 13.707L2.30652 14.1032C2.19699 14.2127 2.14248 14.3563 2.14284 14.4999C2.14248 14.6434 2.19699 14.787 2.30652 14.8966L2.69294 15.2791C2.88218 15.461 2.99995 15.7167 2.99995 16V18H20.9999V4H2.99995V8C2.99995 8.55228 2.55223 9 1.99995 9C1.44766 9 0.999945 8.55228 0.999945 8V3Z" fill="#192B37"/>
<path d="M5.99995 21C5.44766 21 4.99995 21.4477 4.99995 22C4.99995 22.5523 5.44766 23 5.99995 23H17.9999C18.5522 23 18.9999 22.5523 18.9999 22C18.9999 21.4477 18.5522 21 17.9999 21H5.99995Z" fill="#192B37"/>
<path fill-rule="evenodd" clip-rule="evenodd" d="M13.8761 16.541C13.6921 16.8271 13.3753 17 13.0351 17L10.9648 17C10.6246 17 10.3078 16.8271 10.1237 16.541L9.3087 15.2739C9.30429 15.2706 9.29686 15.2656 9.28584 15.2595C9.27316 15.2526 9.26362 15.2486 9.25762 15.2465L8.13663 15.3609C7.75025 15.4003 7.37598 15.2124 7.17673 14.879L6.14156 13.147C5.9335 12.7989 5.95631 12.3595 6.19931 12.0348L6.93172 11.0561C6.90607 11.026 6.88222 10.9944 6.86028 10.9614L6.16737 9.91993C5.95385 9.59899 5.94381 9.18389 6.14157 8.853L7.17673 7.12095C7.37598 6.78757 7.75025 6.59971 8.13663 6.63913L9.25762 6.75353C9.26363 6.75139 9.27316 6.74743 9.28585 6.74048C9.29686 6.73444 9.30429 6.72941 9.3087 6.72614L10.1237 5.45903C10.3078 5.17293 10.6246 5 10.9648 5H13.0351C13.3837 5 13.7072 5.18155 13.8887 5.47914L14.5578 6.57565L14.5603 6.57799C14.5678 6.58475 14.5829 6.59663 14.6081 6.61071C14.6327 6.6245 14.6497 6.63071 14.6583 6.6332L14.6611 6.63397H15.9648C16.3166 6.63397 16.6426 6.81891 16.8231 7.12096L17.8583 8.85301C18.0664 9.20115 18.0436 9.64047 17.8006 9.96518L17.0261 11.0002L17.8005 12.0347C18.0436 12.3594 18.0664 12.7988 17.8583 13.147L16.8232 14.879C16.6239 15.2124 16.2496 15.4003 15.8633 15.3609L14.7423 15.2465C14.7363 15.2486 14.7267 15.2526 14.714 15.2595C14.703 15.2656 14.6956 15.2706 14.6912 15.2739L13.8761 16.541ZM14.9999 11.003C14.9983 12.6585 13.6558 14 11.9999 14C10.3431 14 8.99995 12.6569 8.99995 11C8.99995 9.34315 10.3431 8 11.9999 8C13.6568 8 14.9999 9.34315 14.9999 11L14.9999 11.003Z" fill="#192B37"/>
</svg>
