<svg width="24" height="24" viewBox="0 0 24 24" fill="none" xmlns="http://www.w3.org/2000/svg">
<path d="M12.0861 4.80789C11.9319 4.6036 11.8556 4.34056 11.8939 4.06701C11.9703 3.52008 12.4757 3.13873 13.0226 3.2152C13.5695 3.29168 13.9509 3.79702 13.8744 4.34395C13.8362 4.6175 13.6908 4.84954 13.4865 5.00371L13.0353 5.34062C12.9117 5.43393 12.8378 5.56858 12.8183 5.71082C12.798 5.85296 12.8321 6.0027 12.9254 6.12635L13.2669 6.57411C13.4211 6.77839 13.4972 7.0414 13.459 7.31496L13.4579 7.32265C13.4567 7.33468 13.4553 7.34675 13.4537 7.35883L11.9913 18.3975C11.9188 18.945 11.4161 19.33 10.8686 19.2575C10.3211 19.185 9.93608 18.6823 10.0086 18.1348L11.4711 7.09615L11.4737 7.0779C11.475 7.06464 11.4766 7.05134 11.4784 7.03802C11.5167 6.76446 11.6622 6.53245 11.8665 6.37829L12.3177 6.04137C12.4414 5.94806 12.5152 5.81342 12.5348 5.67117C12.555 5.52903 12.5209 5.37929 12.4276 5.25565L12.0861 4.80789Z" fill="#192B37"/>
<path d="M7.70711 6.29287C8.09763 6.68339 8.09763 7.31656 7.70711 7.70708L3.41421 12L7.70711 16.2929C8.09763 16.6834 8.09763 17.3166 7.70711 17.7071C7.31658 18.0976 6.68342 18.0976 6.29289 17.7071L1.29289 12.7071C0.902369 12.3166 0.902369 11.6834 1.29289 11.2929L6.29289 6.29287C6.68342 5.90234 7.31658 5.90234 7.70711 6.29287Z" fill="#192B37"/>
<path d="M16.2929 16.2929C15.9024 16.6834 15.9024 17.3166 16.2929 17.7071C16.6834 18.0976 17.3166 18.0976 17.7071 17.7071L22.7071 12.7071C23.0976 12.3166 23.0976 11.6834 22.7071 11.2929L17.7071 6.29287C17.3166 5.90234 16.6834 5.90234 16.2929 6.29287C15.9024 6.68339 15.9024 7.31656 16.2929 7.70708L20.5858 12L16.2929 16.2929Z" fill="#192B37"/>
</svg>
