<svg width="24" height="24" viewBox="0 0 24 24" fill="none" xmlns="http://www.w3.org/2000/svg">
<path d="M2.70705 7.70685C2.52608 7.88782 2.27615 7.99982 1.99993 7.99982C1.44768 7.99982 1.00002 7.55216 1.00002 6.99991C1.00002 6.44766 1.44768 6 1.99993 6C2.27615 6 2.52608 6.11183 2.70705 6.29279L3.1032 6.69301C3.21274 6.80254 3.35631 6.85704 3.49989 6.85669C3.64346 6.85704 3.78704 6.80254 3.89657 6.69301L4.29273 6.29279C4.4737 6.11183 4.72363 6 4.99984 6L5.00354 6.00001H22C22.5523 6.00001 23 6.44772 23 7.00001C23 7.55229 22.5523 8.00001 22 8.00001H5C4.71748 8.00001 4.46233 7.88285 4.28048 7.69448L3.89657 7.30664C3.78704 7.19711 3.64346 7.1426 3.49989 7.14296C3.35631 7.1426 3.21274 7.19711 3.1032 7.30664L2.70705 7.70685Z" fill="#192B37"/>
<path d="M2 11C1.44772 11 1 11.4477 1 12C1 12.5523 1.44772 13 2 13H22C22.5523 13 23 12.5523 23 12C23 11.4477 22.5523 11 22 11H2Z" fill="#192B37"/>
<path d="M1 17C1 16.4477 1.44772 16 2 16H22C22.5523 16 23 16.4477 23 17C23 17.5523 22.5523 18 22 18H2C1.44772 18 1 17.5523 1 17Z" fill="#192B37"/>
</svg>
