<svg width="24" height="24" viewBox="0 0 24 24" fill="none" xmlns="http://www.w3.org/2000/svg">
<path d="M1.99995 3C1.44766 3 0.999945 3.44772 0.999945 4V11.9882L0.999878 11.9999C0.999878 12.2761 1.1117 12.5261 1.29267 12.707L1.69288 13.1032C1.80242 13.2127 1.85692 13.3563 1.85657 13.4999C1.85692 13.6434 1.80242 13.787 1.69288 13.8966L1.29267 14.2927C1.1117 14.4737 0.999878 14.7236 0.999878 14.9998C0.999878 15.5521 1.44754 15.9997 1.99979 15.9997C2.55204 15.9997 2.9997 15.5521 2.9997 14.9998C2.9997 14.7236 2.8877 14.4737 2.70673 14.2927L2.30652 13.8966C2.19699 13.787 2.14248 13.6434 2.14284 13.4999C2.14248 13.3563 2.19699 13.2127 2.30652 13.1032L2.68588 12.7277C2.87925 12.5453 2.99995 12.2868 2.99995 12V5H20.9999V19H1.99995C1.44766 19 0.999945 19.4477 0.999945 20C0.999945 20.5523 1.44766 21 1.99995 21H21.9999C22.5522 21 22.9999 20.5523 22.9999 20V4C22.9999 3.44772 22.5522 3 21.9999 3H1.99995Z" fill="#192B37"/>
<path d="M12.7071 12.7071L7.70705 17.7071C7.31653 18.0976 6.68336 18.0976 6.29284 17.7071L4.29284 15.7071C3.90231 15.3166 3.90231 14.6834 4.29284 14.2929C4.68336 13.9024 5.31653 13.9024 5.70705 14.2929L6.99995 15.5858L11.2928 11.2929C11.6834 10.9024 12.3165 10.9024 12.7071 11.2929C13.0976 11.6834 13.0976 12.3166 12.7071 12.7071Z" fill="#192B37"/>
<path d="M12.7071 7.70711C13.0976 7.31658 13.0976 6.68342 12.7071 6.29289C12.3165 5.90237 11.6834 5.90237 11.2928 6.29289L6.99995 10.5858L5.70705 9.29289C5.31653 8.90237 4.68336 8.90237 4.29284 9.29289C3.90231 9.68342 3.90231 10.3166 4.29284 10.7071L6.29284 12.7071C6.68336 13.0976 7.31653 13.0976 7.70705 12.7071L12.7071 7.70711Z" fill="#192B37"/>
<path d="M13.9999 9C13.9999 8.44772 14.4477 8 14.9999 8H18.9999C19.5522 8 19.9999 8.44772 19.9999 9C19.9999 9.55228 19.5522 10 18.9999 10H14.9999C14.4477 10 13.9999 9.55228 13.9999 9Z" fill="#192B37"/>
<path d="M14.9999 13C14.4477 13 13.9999 13.4477 13.9999 14C13.9999 14.5523 14.4477 15 14.9999 15H18.9999C19.5522 15 19.9999 14.5523 19.9999 14C19.9999 13.4477 19.5522 13 18.9999 13H14.9999Z" fill="#192B37"/>
</svg>
