<svg width="24" height="24" viewBox="0 0 24 24" fill="none" xmlns="http://www.w3.org/2000/svg">
<path d="M2.86089 9.81016L2.93233 10.2791C2.95488 10.4323 2.91295 10.5801 2.827 10.6951C2.74162 10.8105 2.61222 10.8932 2.45897 10.9158L1.90143 10.9949C1.64823 11.0322 1.40923 11.1659 1.24442 11.3876C0.914924 11.8308 1.00708 12.4571 1.45026 12.7866C1.89345 13.1161 2.51979 13.0239 2.84929 12.5808C3.01409 12.3591 3.07347 12.0918 3.03622 11.8386L2.95141 11.2819C2.92886 11.1286 2.97079 10.9809 3.05674 10.8659C3.14212 10.7505 3.27152 10.6678 3.42477 10.6452L3.98231 10.5661C4.22196 10.5308 4.44877 10.409 4.61209 10.2081C6.56695 8.20471 9.16395 7 12 7C15.7931 7 19.1725 9.16063 21.1378 12.5065C21.4175 12.9827 22.0303 13.142 22.5065 12.8623C22.9827 12.5825 23.142 11.9697 22.8623 11.4935C20.5858 7.61786 16.5922 5 12 5C8.54121 5 5.4142 6.48838 3.11224 8.88198C2.86664 9.13736 2.78368 9.48946 2.86089 9.81016Z" fill="#192B37"/>
<path d="M12 11C9.84232 11 7.90522 12.3462 6.90114 14.4335C6.66173 14.9312 6.06418 15.1406 5.56649 14.9012C5.0688 14.6617 4.85942 14.0642 5.09884 13.5665C6.38504 10.8928 8.96264 9 12 9C15.0373 9 17.6149 10.8928 18.9011 13.5665C19.1406 14.0642 18.9312 14.6617 18.4335 14.9012C17.9358 15.1406 17.3383 14.9312 17.0988 14.4335C16.0948 12.3462 14.1577 11 12 11Z" fill="#192B37"/>
<path fill-rule="evenodd" clip-rule="evenodd" d="M12 19C13.6569 19 15 17.6569 15 16C15 14.3431 13.6569 13 12 13C10.3431 13 9 14.3431 9 16C9 17.6569 10.3431 19 12 19ZM12 17C12.5523 17 13 16.5523 13 16C13 15.4477 12.5523 15 12 15C11.4477 15 11 15.4477 11 16C11 16.5523 11.4477 17 12 17Z" fill="#192B37"/>
</svg>
